<?xml version="1.0" encoding="UTF-8"?>
<svg width="96" height="96" viewBox="0 0 96 96" fill="none" xmlns="http://www.w3.org/2000/svg" role="img" aria-label="Weather icon">
  <defs>
    <linearGradient id="g1" x1="0" y1="0" x2="1" y2="1">
      <stop offset="0%" stop-color="#fde68a"/>
      <stop offset="100%" stop-color="#f59e0b"/>
    </linearGradient>
    <linearGradient id="g2" x1="0" y1="0" x2="1" y2="1">
      <stop offset="0%" stop-color="#e2e8f0"/>
      <stop offset="100%" stop-color="#94a3b8"/>
    </linearGradient>
    <filter id="shadow" x="-50%" y="-50%" width="200%" height="200%">
      <feDropShadow dx="0" dy="6" stdDeviation="6" flood-color="rgba(0,0,0,0.25)"/>
    </filter>
  </defs>
  <!-- Sun -->
  <circle cx="34" cy="34" r="14" fill="url(#g1)"/>
  <!-- Rays -->
  <g stroke="#f59e0b" stroke-width="2" opacity="0.8">
    <line x1="34" y1="14" x2="34" y2="6"/>
    <line x1="34" y1="62" x2="34" y2="70"/>
    <line x1="14" y1="34" x2="6" y2="34"/>
    <line x1="62" y1="34" x2="70" y2="34"/>
    <line x1="18" y1="18" x2="12" y2="12"/>
    <line x1="50" y1="50" x2="56" y2="56"/>
    <line x1="50" y1="18" x2="56" y2="12"/>
    <line x1="18" y1="50" x2="12" y2="56"/>
  </g>
  <!-- Cloud -->
  <g filter="url(#shadow)">
    <path d="M60 70H28c-6.627 0-12-5.373-12-12 0-6.114 4.584-11.168 10.55-11.906C28.65 40.34 33.7 36 40 36c7.18 0 13.06 5.03 14.59 11.74C60.53 48.83 66 53.89 66 60c0 6.627-5.373 12-12 12z" fill="url(#g2)"/>
  </g>
</svg>